<svg data-name="Layer 1" xmlns="http://www.w3.org/2000/svg" viewBox="0 0 414.71 414.71"><path d="M0 0v414.71h414.71V0H0zm170.82 101.21h29.38V185h-29.38v-83.79zm-33.82 0a16.62 16.62 0 0 1 16.28 13.45L169 184.91v.09h-31.92l-19-83.79H137zm-50 0h29.4V185H87v-83.79zm45.36 218.09v-87.4H87V205h78.6v114.34h-33.21zm52.9-82a16.69 16.69 0 1 1 16.6-16.71 16.61 16.61 0 0 1-16.57 16.67zm33.3-137.79A16.69 16.69 0 1 1 202 116.13a16.64 16.64 0 0 1 16.59-16.67zm11.9 219.83L204.66 205h20.28a16.62 16.62 0 0 1 16.28 13.45l22.56 100.89h-33.29zM266.41 185H237v-83.79h29.38V185zm33.44 134.34h-33.3L292.12 205h33.56zm3.3-172.34c.27.49 23.15 38 23.15 38H294s-19.33-31.46-22-36-2.74-7.24-.09-11.66S294 101.16 294 101.16h32.3L303 139.28c-1.69 2.91-1.6 4.72.15 7.72z" fill="#fff" fill-rule="evenodd"/></svg>